<?xml version="1.0" standalone="no"?>
<!DOCTYPE svg PUBLIC "-//W3C//DTD SVG 20010904//EN"
 "http://www.w3.org/TR/2001/REC-SVG-20010904/DTD/svg10.dtd">
<svg version="1.0" xmlns="http://www.w3.org/2000/svg"
 width="900.000000pt" height="900.000000pt" viewBox="0 0 900.000000 900.000000"
 preserveAspectRatio="xMidYMid meet">
<metadata>
Created by potrace 1.14, written by Peter Selinger 2001-2017
</metadata>
<g transform="translate(0.000000,900.000000) scale(0.100000,-0.100000)"
fill="#000000" stroke="none">
<path d="M1227 8623 c-5 -25 -1 -154 6 -203 16 -108 89 -262 172 -362 117
-143 292 -249 446 -272 l46 -7 11 -52 c33 -164 136 -319 288 -434 43 -33 172
-98 229 -116 28 -9 79 -21 115 -27 53 -9 73 -18 105 -48 143 -131 227 -314
229 -498 l1 -94 783 0 782 0 0 -3085 0 -3085 129 2 129 1 22 91 c134 547 486
1111 944 1510 32 28 64 56 70 61 18 17 126 99 201 151 310 220 691 391 1063
479 140 33 181 41 317 60 22 3 51 8 65 10 53 9 236 22 340 24 l55 1 1 125 1
125 -61 1 c-34 0 -68 2 -76 3 -8 2 -37 6 -65 9 -27 4 -75 11 -105 17 -30 6
-68 13 -83 16 -78 13 -318 102 -442 163 -122 60 -342 196 -401 248 -11 10 -40
34 -64 53 -123 95 -385 359 -448 452 -9 13 -19 25 -22 28 -17 14 -108 141
-183 255 -290 444 -553 999 -738 1560 -34 101 -133 436 -144 485 -2 8 -18 74
-35 145 -36 153 -58 252 -65 297 -3 18 -10 53 -15 78 -29 136 -85 513 -105
715 -4 33 -8 76 -11 95 -2 19 -6 91 -9 160 -3 69 -8 154 -10 190 -19 249 -210
511 -456 624 -164 75 -52 70 -1611 72 l-1396 2 -5 -25z m2821 -236 c102 -27
171 -67 248 -142 75 -74 105 -116 129 -184 13 -38 13 -41 -3 -42 -9 0 -566 -1
-1237 -1 -842 0 -1239 3 -1280 11 -167 30 -326 158 -392 316 l-22 50 342 5
c188 3 749 5 1247 4 813 0 911 -2 968 -17z m390 -805 l2 -192 -926 0 c-1019 0
-981 -2 -1108 62 -107 54 -210 173 -251 287 l-12 36 1146 0 1146 0 3 -193z
m-10 -442 c10 0 12 -42 10 -192 l-3 -191 -658 -1 c-429 -1 -661 2 -666 9 -4 6
-15 38 -24 73 -19 68 -94 227 -128 270 l-21 27 584 5 c472 4 777 4 906 0z
m312 -1060 c71 -261 158 -526 264 -805 85 -221 255 -589 359 -771 24 -43 53
-95 64 -114 48 -83 72 -122 157 -250 75 -112 196 -280 216 -300 3 -3 38 -45
79 -95 69 -83 322 -343 400 -409 170 -145 416 -307 603 -396 56 -27 96 -51 88
-54 -8 -2 -53 -14 -100 -26 -249 -65 -585 -204 -840 -348 -167 -94 -466 -312
-604 -441 -287 -268 -526 -576 -681 -879 -26 -50 -49 -92 -51 -92 -2 0 -4
1155 -3 2568 0 1412 4 2558 9 2547 4 -11 22 -72 40 -135z"/>
<path d="M2813 5987 c-2 -4 -2 -58 2 -120 3 -61 7 -157 10 -212 2 -55 7 -152
10 -215 3 -63 8 -162 10 -220 3 -58 7 -148 10 -200 2 -52 7 -151 10 -220 5
-120 10 -210 19 -405 3 -49 8 -155 11 -235 3 -80 8 -179 10 -220 2 -41 7 -129
10 -195 5 -116 10 -238 20 -435 10 -215 15 -332 20 -454 10 -252 24 -383 26
-235 0 35 2 78 4 94 1 17 6 86 9 155 4 69 9 163 11 210 9 170 21 413 30 620 4
74 8 164 10 200 2 36 6 128 9 205 7 153 9 207 31 680 8 163 15 322 20 445 3
63 8 156 10 205 15 327 18 399 19 475 l1 85 -158 0 c-88 0 -161 -3 -164 -8z"/>
<path d="M3555 5393 c3 -76 8 -176 10 -223 8 -167 31 -679 40 -915 6 -154 14
-334 20 -440 2 -49 7 -153 10 -230 3 -77 8 -174 10 -215 2 -41 7 -140 10 -220
4 -80 8 -181 10 -225 2 -44 7 -143 10 -220 3 -77 7 -174 10 -215 10 -203 18
-377 16 -397 0 -13 4 -23 9 -23 6 0 10 24 11 53 0 28 2 75 4 102 1 28 6 113 9
190 4 77 9 172 11 210 5 86 14 285 20 420 3 55 7 147 10 205 6 137 13 286 20
435 5 114 8 176 20 425 2 58 7 159 10 225 6 134 12 267 20 430 6 127 13 273
20 430 2 61 7 161 10 223 l6 112 -166 0 -167 0 7 -137z"/>
<path d="M2971 2534 c0 -11 3 -14 6 -6 3 7 2 16 -1 19 -3 4 -6 -2 -5 -13z"/>
<path d="M3704 2025 c0 -19 2 -32 5 -29 8 8 10 64 2 64 -4 0 -7 -16 -7 -35z"/>
</g>
</svg>
