<?xml version="1.0" encoding="utf-8"?>
<svg width="1643pt" height="924pt" viewBox="0 0 1643 924" version="1.1" xmlns="http://www.w3.org/2000/svg">
  <g id="#b4cc04ff" transform="matrix(1, 0, 0, 1, -274.160073, 0)">
    <g style="" transform="matrix(1.207974, 0, 0, 1.280986, -291.649697, -69.213984)">
      <path fill="#b4cc04" opacity="1.00" d=" M 1373.92 333.98 C 1392.14 276.85 1480.03 265.91 1512.72 315.54 C 1504.16 327.04 1495.46 338.43 1486.90 349.92 C 1478.09 329.10 1450.94 318.34 1431.01 330.04 C 1418.41 336.93 1412.39 354.85 1420.79 367.14 C 1433.10 385.20 1455.14 391.99 1471.61 405.31 C 1509.13 429.27 1512.19 487.70 1483.63 519.61 C 1447.22 558.57 1375.21 552.51 1346.04 507.50 C 1355.10 495.65 1364.25 483.88 1373.41 472.10 C 1384.10 495.14 1412.52 508.97 1436.60 498.50 C 1459.11 488.53 1459.72 453.25 1439.67 440.27 C 1421.57 428.20 1400.79 419.50 1385.60 403.44 C 1369.09 384.80 1366.41 357.05 1373.92 333.98 Z"/>
      <path fill="#b4cc04" opacity="1.00" d=" M 909.22 290.00 C 927.55 290.00 945.88 290.00 964.20 290.00 C 983.49 372.88 1002.99 455.70 1022.18 538.60 C 1004.36 538.60 986.54 538.60 968.73 538.60 C 965.35 520.80 961.88 503.02 958.53 485.21 C 927.89 485.19 897.24 485.20 866.59 485.21 C 857.81 502.97 849.24 520.82 840.50 538.60 C 821.74 538.60 802.97 538.60 784.20 538.60 C 825.81 455.71 867.48 372.83 909.22 290.00 M 932.00 333.78 C 921.76 372.57 902.02 407.77 886.19 444.39 C 907.16 444.40 928.13 444.40 949.10 444.39 C 941.89 407.76 933.54 371.22 932.00 333.78 Z"/>
      <path fill="#b4cc04" opacity="1.00" d=" M 1066.91 290.01 C 1085.70 289.99 1104.49 290.01 1123.28 290.00 C 1132.95 317.84 1144.55 345.08 1151.65 373.75 C 1164.45 343.55 1186.11 318.08 1202.84 290.00 C 1222.72 290.00 1242.59 290.00 1262.47 290.00 C 1234.23 329.89 1205.86 369.70 1177.69 409.64 C 1196.15 452.58 1214.39 495.62 1232.79 538.58 C 1214.12 538.63 1195.44 538.59 1176.77 538.60 C 1166.55 508.57 1152.36 479.73 1145.58 448.65 C 1129.60 480.24 1107.84 508.49 1089.30 538.60 C 1069.81 538.62 1050.33 538.58 1030.85 538.61 C 1060.31 495.65 1089.90 452.79 1119.39 409.84 C 1101.84 369.93 1084.44 329.94 1066.91 290.01 Z"/>
      <path fill="#b4cc04" opacity="1.00" d=" M 1286.31 290.00 C 1303.16 290.00 1320.01 290.00 1336.86 290.00 C 1326.29 372.87 1315.85 455.76 1305.13 538.61 C 1288.31 538.59 1271.49 538.60 1254.67 538.60 C 1265.19 455.73 1275.80 372.87 1286.31 290.00 Z"/>
    </g>
    <g transform="matrix(1, 0, 0, 1, -83.791339, 0.224152)"/>
  </g>
</svg>