<?xml version="1.0" encoding="UTF-8" ?>
<!DOCTYPE svg PUBLIC "-//W3C//DTD SVG 1.1//EN" "http://www.w3.org/Graphics/SVG/1.1/DTD/svg11.dtd">
<svg width="1643pt" height="924pt" viewBox="0 0 1643 924" version="1.1" xmlns="http://www.w3.org/2000/svg">
<g id="#b4cc04ff">
<path fill="#b4cc04" opacity="1.00" d=" M 129.95 129.60 C 202.60 129.80 275.27 129.21 347.91 129.89 C 382.28 130.73 411.01 163.45 407.48 197.63 C 414.77 298.77 443.39 400.47 499.26 485.79 C 533.76 537.84 588.85 582.08 653.80 583.16 C 653.77 589.75 653.46 596.35 653.63 602.95 C 614.73 603.36 575.70 611.50 540.62 628.54 C 475.01 660.46 423.04 722.30 407.31 794.00 C 400.47 794.00 393.63 794.00 386.80 794.00 C 386.81 629.53 386.79 465.06 386.81 300.59 C 344.98 300.63 303.15 300.56 261.33 300.63 C 264.17 281.28 254.69 262.25 240.06 250.22 C 213.06 248.11 186.60 227.06 183.58 199.23 C 150.57 195.07 125.28 162.74 129.95 129.60 M 150.93 149.38 C 155.78 166.95 172.81 179.57 190.91 179.95 C 256.23 180.06 321.56 179.98 386.88 179.99 C 381.73 161.83 363.74 148.96 345.01 149.01 C 280.32 149.04 215.62 149.19 150.93 149.38 M 203.05 199.41 C 207.98 218.17 226.71 231.40 246.00 230.21 C 292.94 230.18 339.87 230.20 386.80 230.20 C 386.79 219.93 386.81 209.67 386.80 199.40 C 325.55 199.41 264.30 199.38 203.05 199.41 M 266.78 250.18 C 272.96 259.51 278.17 269.72 280.17 280.82 C 315.71 280.78 351.26 280.81 386.80 280.80 C 386.80 270.53 386.80 260.27 386.80 250.00 C 346.80 249.97 306.79 250.37 266.78 250.18 M 406.93 321.23 C 406.75 458.94 406.65 596.67 406.98 734.38 C 441.83 661.03 512.22 608.42 590.73 590.13 C 547.52 571.80 512.38 538.37 485.38 500.55 C 447.16 446.97 423.59 384.49 406.93 321.23 Z" />
<path fill="#b4cc04" opacity="1.00" d=" M 1373.92 333.98 C 1392.14 276.85 1480.03 265.91 1512.72 315.54 C 1504.16 327.04 1495.46 338.43 1486.90 349.92 C 1478.09 329.10 1450.94 318.34 1431.01 330.04 C 1418.41 336.93 1412.39 354.85 1420.79 367.14 C 1433.10 385.20 1455.14 391.99 1471.61 405.31 C 1509.13 429.27 1512.19 487.70 1483.63 519.61 C 1447.22 558.57 1375.21 552.51 1346.04 507.50 C 1355.10 495.65 1364.25 483.88 1373.41 472.10 C 1384.10 495.14 1412.52 508.97 1436.60 498.50 C 1459.11 488.53 1459.72 453.25 1439.67 440.27 C 1421.57 428.20 1400.79 419.50 1385.60 403.44 C 1369.09 384.80 1366.41 357.05 1373.92 333.98 Z" />
<path fill="#b4cc04" opacity="1.00" d=" M 909.22 290.00 C 927.55 290.00 945.88 290.00 964.20 290.00 C 983.49 372.88 1002.99 455.70 1022.18 538.60 C 1004.36 538.60 986.54 538.60 968.73 538.60 C 965.35 520.80 961.88 503.02 958.53 485.21 C 927.89 485.19 897.24 485.20 866.59 485.21 C 857.81 502.97 849.24 520.82 840.50 538.60 C 821.74 538.60 802.97 538.60 784.20 538.60 C 825.81 455.71 867.48 372.83 909.22 290.00 M 932.00 333.78 C 921.76 372.57 902.02 407.77 886.19 444.39 C 907.16 444.40 928.13 444.40 949.10 444.39 C 941.89 407.76 933.54 371.22 932.00 333.78 Z" />
<path fill="#b4cc04" opacity="1.00" d=" M 1066.91 290.01 C 1085.70 289.99 1104.49 290.01 1123.28 290.00 C 1132.95 317.84 1144.55 345.08 1151.65 373.75 C 1164.45 343.55 1186.11 318.08 1202.84 290.00 C 1222.72 290.00 1242.59 290.00 1262.47 290.00 C 1234.23 329.89 1205.86 369.70 1177.69 409.64 C 1196.15 452.58 1214.39 495.62 1232.79 538.58 C 1214.12 538.63 1195.44 538.59 1176.77 538.60 C 1166.55 508.57 1152.36 479.73 1145.58 448.65 C 1129.60 480.24 1107.84 508.49 1089.30 538.60 C 1069.81 538.62 1050.33 538.58 1030.85 538.61 C 1060.31 495.65 1089.90 452.79 1119.39 409.84 C 1101.84 369.93 1084.44 329.94 1066.91 290.01 Z" />
<path fill="#b4cc04" opacity="1.00" d=" M 1286.31 290.00 C 1303.16 290.00 1320.01 290.00 1336.86 290.00 C 1326.29 372.87 1315.85 455.76 1305.13 538.61 C 1288.31 538.59 1271.49 538.60 1254.67 538.60 C 1265.19 455.73 1275.80 372.87 1286.31 290.00 Z" />
<path fill="#b4cc04" opacity="1.00" d=" M 256.34 341.87 C 265.18 341.71 274.02 341.84 282.86 341.80 C 278.26 435.57 274.79 529.44 269.38 623.13 C 265.30 529.37 260.60 435.63 256.34 341.87 Z" />
<path fill="#b4cc04" opacity="1.00" d=" M 315.54 379.01 C 324.37 378.99 333.20 379.00 342.03 379.00 C 337.40 475.19 333.37 571.43 328.43 667.59 C 323.98 571.40 319.77 475.20 315.54 379.01 Z" />
<path fill="#b4cc04" opacity="1.00" d=" M 1181.41 580.42 C 1186.06 578.28 1191.45 579.96 1196.40 579.16 C 1196.51 601.49 1196.29 623.82 1196.06 646.14 C 1195.82 650.69 1201.22 650.72 1203.24 653.31 C 1198.39 653.92 1193.48 653.47 1188.62 653.60 C 1188.41 650.52 1188.40 647.45 1188.54 644.38 C 1184.35 652.44 1173.98 657.89 1165.66 652.31 C 1150.95 645.08 1150.35 623.22 1161.78 612.78 C 1168.93 605.13 1182.80 605.22 1188.74 614.34 C 1186.59 603.66 1195.18 584.03 1181.41 580.42 M 1174.38 609.46 C 1159.11 614.32 1159.27 640.45 1170.37 649.65 C 1192.92 657.95 1197.25 607.78 1174.38 609.46 Z" />
<path fill="#b4cc04" opacity="1.00" d=" M 1310.39 580.43 C 1316.73 579.30 1318.49 589.83 1311.94 590.36 C 1305.39 591.70 1303.68 580.90 1310.39 580.43 Z" />
<path fill="#b4cc04" opacity="1.00" d=" M 935.33 582.39 C 954.05 583.67 972.81 583.06 991.56 583.19 C 992.81 589.24 994.27 595.30 994.49 601.49 C 987.34 586.03 969.75 582.63 954.51 586.37 C 953.50 596.02 953.84 605.73 953.81 615.41 C 963.84 617.71 973.71 613.21 976.18 602.81 C 976.19 612.37 977.15 622.79 975.28 632.01 C 974.71 620.73 963.63 616.65 953.84 617.95 C 954.56 628.14 950.96 640.25 956.88 649.15 C 970.80 656.20 992.08 651.03 997.61 635.11 C 999.34 641.27 995.45 648.07 994.65 654.40 C 973.86 654.49 953.04 654.01 932.28 653.09 C 935.99 650.56 943.11 651.97 943.57 645.71 C 945.31 627.55 944.68 609.14 943.81 590.91 C 943.81 585.80 937.88 585.13 934.18 583.80 C 934.47 583.45 935.04 582.74 935.33 582.39 Z" />
<path fill="#b4cc04" opacity="1.00" d=" M 1010.27 622.98 C 1006.46 608.63 1025.67 602.24 1035.59 609.98 C 1036.49 609.15 1037.40 608.34 1038.33 607.53 C 1039.21 612.51 1039.60 617.61 1039.22 622.67 C 1034.98 618.89 1034.92 611.19 1028.69 609.42 C 1023.05 606.69 1012.94 611.25 1016.62 618.43 C 1023.10 627.08 1040.57 625.61 1041.21 639.04 C 1041.50 653.64 1023.14 658.57 1012.81 650.55 C 1011.69 651.70 1010.56 652.85 1009.46 654.01 C 1008.98 648.25 1007.57 641.77 1009.72 636.35 C 1011.74 646.60 1025.24 659.34 1033.87 647.90 C 1038.49 632.24 1013.98 634.91 1010.27 622.98 Z" />
<path fill="#b4cc04" opacity="1.00" d=" M 1057.29 648.71 C 1042.81 635.84 1052.03 607.13 1071.97 607.01 C 1078.81 606.90 1091.63 611.05 1087.96 619.94 C 1079.64 625.22 1081.21 607.13 1071.99 609.17 C 1052.04 612.37 1056.02 652.26 1076.58 651.51 C 1083.81 650.65 1086.14 643.45 1089.32 638.37 C 1090.48 654.56 1066.72 659.84 1057.29 648.71 Z" />
<path fill="#b4cc04" opacity="1.00" d=" M 1224.00 608.88 C 1235.83 602.17 1253.28 614.22 1250.26 627.42 C 1239.94 628.28 1229.51 627.67 1219.17 628.25 C 1214.26 646.84 1238.04 658.68 1249.98 643.80 C 1246.11 655.74 1227.85 657.65 1218.83 650.23 C 1205.02 639.87 1208.62 615.94 1224.00 608.88 M 1229.70 609.53 C 1222.83 611.63 1219.96 619.02 1219.14 625.54 C 1226.26 625.39 1233.81 627.00 1240.65 624.55 C 1246.62 618.24 1237.60 606.72 1229.70 609.53 Z" />
<path fill="#b4cc04" opacity="1.00" d=" M 1273.00 619.06 C 1276.49 613.31 1281.60 606.68 1289.08 607.05 C 1294.58 607.11 1298.45 615.21 1293.61 618.72 C 1287.52 621.70 1287.47 609.29 1281.01 613.13 C 1269.69 619.84 1273.36 635.12 1273.09 646.09 C 1272.30 650.62 1276.91 651.26 1279.91 652.91 C 1272.42 653.71 1264.13 654.67 1256.92 652.48 C 1265.04 652.95 1265.57 645.16 1265.01 639.00 C 1263.30 628.95 1270.16 611.50 1256.21 608.95 C 1261.44 607.84 1266.83 608.10 1272.14 607.65 C 1272.57 611.44 1272.72 615.25 1273.00 619.06 Z" />
<path fill="#b4cc04" opacity="1.00" d=" M 1301.42 609.58 C 1305.46 606.14 1311.98 608.10 1317.00 607.00 C 1316.95 620.69 1316.89 634.39 1317.12 648.07 C 1317.11 653.06 1323.82 650.29 1325.33 653.76 C 1317.16 652.76 1308.90 653.68 1300.76 653.20 C 1309.50 652.26 1310.41 645.26 1309.50 637.63 C 1307.76 628.62 1315.36 610.17 1301.42 609.58 Z" />
<path fill="#b4cc04" opacity="1.00" d=" M 1338.24 610.26 C 1346.20 605.75 1358.36 605.14 1365.15 612.01 C 1368.60 623.81 1364.01 636.71 1367.48 648.61 C 1368.44 652.00 1372.25 651.03 1374.93 651.23 C 1370.78 655.61 1357.03 656.31 1358.57 647.01 C 1353.69 653.65 1343.84 656.75 1336.51 652.42 C 1329.93 647.99 1331.41 637.55 1337.38 633.25 C 1343.47 629.15 1351.45 628.84 1357.32 624.32 C 1362.29 618.11 1356.48 606.84 1348.10 609.31 C 1340.93 609.88 1344.58 620.84 1338.11 621.77 C 1331.99 620.88 1333.77 612.33 1338.24 610.26 M 1340.84 640.07 C 1338.48 646.16 1344.91 653.73 1351.28 650.35 C 1361.10 646.29 1358.96 634.07 1358.76 625.59 C 1353.19 630.90 1343.60 632.17 1340.84 640.07 Z" />
<path fill="#b4cc04" opacity="1.00" d=" M 1096.42 608.91 C 1100.70 607.31 1105.34 608.20 1109.80 608.01 C 1111.02 620.61 1108.71 633.75 1111.98 646.00 C 1118.62 656.78 1133.34 644.81 1132.18 634.99 C 1131.30 626.06 1137.18 611.36 1125.52 608.44 C 1130.26 607.68 1135.08 608.05 1139.87 608.07 C 1140.89 621.08 1139.43 634.14 1140.14 647.14 C 1140.07 650.60 1143.62 651.54 1146.21 652.61 C 1141.80 654.42 1136.81 653.60 1132.19 653.18 C 1132.34 650.00 1132.44 646.81 1132.29 643.63 C 1126.54 652.24 1111.37 659.61 1104.32 648.68 C 1101.18 636.49 1103.08 623.54 1101.93 611.07 C 1100.43 609.73 1098.15 609.77 1096.42 608.91 Z" />
</g>
</svg>
