<?xml version="1.0" encoding="utf-8"?>
<svg width="1643pt" height="924pt" viewBox="0 0 1643 924" version="1.1" xmlns="http://www.w3.org/2000/svg">
  <g id="#b4cc04ff">
    <g transform="matrix(1, 0, 0, 1, 429.903486, 0.224152)">
      <g>
        <path fill="#b4cc04" opacity="1.00" d=" M 129.95 129.60 C 202.60 129.80 275.27 129.21 347.91 129.89 C 382.28 130.73 411.01 163.45 407.48 197.63 C 414.77 298.77 443.39 400.47 499.26 485.79 C 533.76 537.84 588.85 582.08 653.80 583.16 C 653.77 589.75 653.46 596.35 653.63 602.95 C 614.73 603.36 575.70 611.50 540.62 628.54 C 475.01 660.46 423.04 722.30 407.31 794.00 C 400.47 794.00 393.63 794.00 386.80 794.00 C 386.81 629.53 386.79 465.06 386.81 300.59 C 344.98 300.63 303.15 300.56 261.33 300.63 C 264.17 281.28 254.69 262.25 240.06 250.22 C 213.06 248.11 186.60 227.06 183.58 199.23 C 150.57 195.07 125.28 162.74 129.95 129.60 M 150.93 149.38 C 155.78 166.95 172.81 179.57 190.91 179.95 C 256.23 180.06 321.56 179.98 386.88 179.99 C 381.73 161.83 363.74 148.96 345.01 149.01 C 280.32 149.04 215.62 149.19 150.93 149.38 M 203.05 199.41 C 207.98 218.17 226.71 231.40 246.00 230.21 C 292.94 230.18 339.87 230.20 386.80 230.20 C 386.79 219.93 386.81 209.67 386.80 199.40 C 325.55 199.41 264.30 199.38 203.05 199.41 M 266.78 250.18 C 272.96 259.51 278.17 269.72 280.17 280.82 C 315.71 280.78 351.26 280.81 386.80 280.80 C 386.80 270.53 386.80 260.27 386.80 250.00 C 346.80 249.97 306.79 250.37 266.78 250.18 M 406.93 321.23 C 406.75 458.94 406.65 596.67 406.98 734.38 C 441.83 661.03 512.22 608.42 590.73 590.13 C 547.52 571.80 512.38 538.37 485.38 500.55 C 447.16 446.97 423.59 384.49 406.93 321.23 Z"/>
      </g>
      <path fill="#b4cc04" opacity="1.00" d=" M 256.34 341.87 C 265.18 341.71 274.02 341.84 282.86 341.80 C 278.26 435.57 274.79 529.44 269.38 623.13 C 265.30 529.37 260.60 435.63 256.34 341.87 Z"/>
      <path fill="#b4cc04" opacity="1.00" d=" M 315.54 379.01 C 324.37 378.99 333.20 379.00 342.03 379.00 C 337.40 475.19 333.37 571.43 328.43 667.59 C 323.98 571.40 319.77 475.20 315.54 379.01 Z"/>
    </g>
  </g>
</svg>